<svg id="visual" viewBox="0 0 1200 800" width="1200" height="800" xmlns="http://www.w3.org/2000/svg" xmlns:xlink="http://www.w3.org/1999/xlink" version="1.1"><rect x="0" y="0" width="1200" height="800" fill="#000000"></rect><path d="M0 532L71 532L71 511L141 511L141 660L212 660L212 688L282 688L282 597L353 597L353 512L424 512L424 612L494 612L494 668L565 668L565 591L635 591L635 519L706 519L706 544L776 544L776 542L847 542L847 563L918 563L918 581L988 581L988 539L1059 539L1059 682L1129 682L1129 604L1200 604L1200 534L1200 801L1200 801L1129 801L1129 801L1059 801L1059 801L988 801L988 801L918 801L918 801L847 801L847 801L776 801L776 801L706 801L706 801L635 801L635 801L565 801L565 801L494 801L494 801L424 801L424 801L353 801L353 801L282 801L282 801L212 801L212 801L141 801L141 801L71 801L71 801L0 801Z" fill="#080809"></path><path d="M0 549L71 549L71 529L141 529L141 614L212 614L212 692L282 692L282 626L353 626L353 675L424 675L424 615L494 615L494 639L565 639L565 528L635 528L635 619L706 619L706 565L776 565L776 690L847 690L847 623L918 623L918 642L988 642L988 560L1059 560L1059 665L1129 665L1129 588L1200 588L1200 533L1200 801L1200 801L1129 801L1129 801L1059 801L1059 801L988 801L988 801L918 801L918 801L847 801L847 801L776 801L776 801L706 801L706 801L635 801L635 801L565 801L565 801L494 801L494 801L424 801L424 801L353 801L353 801L282 801L282 801L212 801L212 801L141 801L141 801L71 801L71 801L0 801Z" fill="#0b0b0e"></path><path d="M0 668L71 668L71 619L141 619L141 610L212 610L212 606L282 606L282 654L353 654L353 644L424 644L424 603L494 603L494 649L565 649L565 650L635 650L635 615L706 615L706 622L776 622L776 641L847 641L847 576L918 576L918 626L988 626L988 639L1059 639L1059 649L1129 649L1129 582L1200 582L1200 677L1200 801L1200 801L1129 801L1129 801L1059 801L1059 801L988 801L988 801L918 801L918 801L847 801L847 801L776 801L776 801L706 801L706 801L635 801L635 801L565 801L565 801L494 801L494 801L424 801L424 801L353 801L353 801L282 801L282 801L212 801L212 801L141 801L141 801L71 801L71 801L0 801Z" fill="#0e0e11"></path><path d="M0 715L71 715L71 616L141 616L141 672L212 672L212 657L282 657L282 635L353 635L353 612L424 612L424 649L494 649L494 704L565 704L565 712L635 712L635 731L706 731L706 667L776 667L776 636L847 636L847 666L918 666L918 670L988 670L988 676L1059 676L1059 604L1129 604L1129 722L1200 722L1200 622L1200 801L1200 801L1129 801L1129 801L1059 801L1059 801L988 801L988 801L918 801L918 801L847 801L847 801L776 801L776 801L706 801L706 801L635 801L635 801L565 801L565 801L494 801L494 801L424 801L424 801L353 801L353 801L282 801L282 801L212 801L212 801L141 801L141 801L71 801L71 801L0 801Z" fill="#101015"></path><path d="M0 675L71 675L71 706L141 706L141 645L212 645L212 680L282 680L282 714L353 714L353 635L424 635L424 733L494 733L494 738L565 738L565 637L635 637L635 744L706 744L706 665L776 665L776 631L847 631L847 641L918 641L918 742L988 742L988 728L1059 728L1059 674L1129 674L1129 700L1200 700L1200 713L1200 801L1200 801L1129 801L1129 801L1059 801L1059 801L988 801L988 801L918 801L918 801L847 801L847 801L776 801L776 801L706 801L706 801L635 801L635 801L565 801L565 801L494 801L494 801L424 801L424 801L353 801L353 801L282 801L282 801L212 801L212 801L141 801L141 801L71 801L71 801L0 801Z" fill="#121217"></path><path d="M0 687L71 687L71 705L141 705L141 664L212 664L212 665L282 665L282 675L353 675L353 734L424 734L424 699L494 699L494 688L565 688L565 703L635 703L635 756L706 756L706 764L776 764L776 678L847 678L847 750L918 750L918 718L988 718L988 749L1059 749L1059 699L1129 699L1129 754L1200 754L1200 722L1200 801L1200 801L1129 801L1129 801L1059 801L1059 801L988 801L988 801L918 801L918 801L847 801L847 801L776 801L776 801L706 801L706 801L635 801L635 801L565 801L565 801L494 801L494 801L424 801L424 801L353 801L353 801L282 801L282 801L212 801L212 801L141 801L141 801L71 801L71 801L0 801Z" fill="#14141a"></path><path d="M0 714L71 714L71 760L141 760L141 708L212 708L212 779L282 779L282 729L353 729L353 767L424 767L424 708L494 708L494 742L565 742L565 723L635 723L635 703L706 703L706 757L776 757L776 778L847 778L847 706L918 706L918 739L988 739L988 742L1059 742L1059 703L1129 703L1129 761L1200 761L1200 742L1200 801L1200 801L1129 801L1129 801L1059 801L1059 801L988 801L988 801L918 801L918 801L847 801L847 801L776 801L776 801L706 801L706 801L635 801L635 801L565 801L565 801L494 801L494 801L424 801L424 801L353 801L353 801L282 801L282 801L212 801L212 801L141 801L141 801L71 801L71 801L0 801Z" fill="#16161d"></path><path d="M0 739L71 739L71 791L141 791L141 772L212 772L212 774L282 774L282 748L353 748L353 758L424 758L424 738L494 738L494 783L565 783L565 766L635 766L635 734L706 734L706 773L776 773L776 747L847 747L847 784L918 784L918 788L988 788L988 789L1059 789L1059 744L1129 744L1129 760L1200 760L1200 766L1200 801L1200 801L1129 801L1129 801L1059 801L1059 801L988 801L988 801L918 801L918 801L847 801L847 801L776 801L776 801L706 801L706 801L635 801L635 801L565 801L565 801L494 801L494 801L424 801L424 801L353 801L353 801L282 801L282 801L212 801L212 801L141 801L141 801L71 801L71 801L0 801Z" fill="#171820"></path></svg>